<svg width="512" height="512" viewBox="0 0 512 512" fill="none" xmlns="http://www.w3.org/2000/svg">
<g clip-path="url(#clip0_1_6251)">
<path d="M256 512.001C397.385 512.001 512 397.386 512 256.001C512 114.616 397.385 0.000976562 256 0.000976562C114.615 0.000976562 0 114.616 0 256.001C0 397.386 114.615 512.001 256 512.001Z" fill="#F0F0F0"/>
<path d="M244.87 256.001H512C512 232.895 508.92 210.511 503.181 189.218H244.87V256.001Z" fill="#D80027"/>
<path d="M244.87 122.436H474.426C458.755 96.864 438.718 74.261 415.356 55.653H244.87V122.436Z" fill="#D80027"/>
<path d="M256 512.001C316.249 512.001 371.626 491.177 415.356 456.349H96.644C140.374 491.177 195.751 512.001 256 512.001Z" fill="#D80027"/>
<path d="M37.574 389.566H474.426C487.007 369.037 496.764 346.597 503.181 322.783H8.819C15.236 346.597 24.993 369.037 37.574 389.566Z" fill="#D80027"/>
<path d="M118.584 39.979H141.913L120.213 55.744L128.502 81.253L106.803 65.488L85.104 81.253L92.264 59.216C73.158 75.131 56.412 93.777 42.612 114.553H50.087L36.274 124.588C34.122 128.178 32.058 131.825 30.08 135.526L36.676 155.827L24.37 146.886C21.311 153.367 18.513 159.994 15.998 166.759L23.265 189.127H50.087L28.387 204.892L36.676 230.401L14.977 214.636L1.979 224.08C0.678 234.538 0 245.19 0 256.001H256C256 114.617 256 97.949 256 0.000976562C205.428 0.000976562 158.285 14.671 118.584 39.979ZM128.502 230.401L106.803 214.636L85.104 230.401L93.393 204.892L71.693 189.127H98.515L106.803 163.618L115.091 189.127H141.913L120.213 204.892L128.502 230.401ZM120.213 130.318L128.502 155.827L106.803 140.062L85.104 155.827L93.393 130.318L71.693 114.553H98.515L106.803 89.044L115.091 114.553H141.913L120.213 130.318ZM220.328 230.401L198.629 214.636L176.93 230.401L185.219 204.892L163.519 189.127H190.341L198.629 163.618L206.917 189.127H233.739L212.039 204.892L220.328 230.401ZM212.039 130.318L220.328 155.827L198.629 140.062L176.93 155.827L185.219 130.318L163.519 114.553H190.341L198.629 89.044L206.917 114.553H233.739L212.039 130.318ZM212.039 55.744L220.328 81.253L198.629 65.488L176.93 81.253L185.219 55.744L163.519 39.979H190.341L198.629 14.47L206.917 39.979H233.739L212.039 55.744Z" fill="#0052B4"/>
</g>
<defs>
<clipPath id="clip0_1_6251">
<rect width="512" height="512" fill="white" transform="translate(0 0.000976562)"/>
</clipPath>
</defs>
</svg>
